<?xml version="1.0" standalone="no"?>
<!DOCTYPE svg PUBLIC "-//W3C//DTD SVG 20010904//EN"
 "http://www.w3.org/TR/2001/REC-SVG-20010904/DTD/svg10.dtd">
<svg version="1.0" xmlns="http://www.w3.org/2000/svg"
 width="500.000000pt" height="500.000000pt" viewBox="0 0 500.000000 500.000000"
 preserveAspectRatio="xMidYMid meet">

<g transform="translate(0.000000,500.000000) scale(0.100000,-0.100000)"
fill="#000000" stroke="none">
<path d="M4473 3743 c9 -2 23 -2 30 0 6 3 -1 5 -18 5 -16 0 -22 -2 -12 -5z"/>
<path d="M2503 2524 c-240 -482 -241 -485 -180 -492 25 -3 35 15 254 452 224
449 227 455 209 475 -43 48 -44 47 -283 -435z"/>
<path d="M1826 2762 c-27 -31 -84 -97 -127 -147 -55 -62 -79 -97 -79 -115 0
-18 37 -67 130 -173 l130 -147 0 66 0 66 -76 86 c-42 48 -78 92 -81 99 -3 7
32 53 76 104 l81 91 0 64 c0 35 -1 64 -2 63 -2 0 -25 -26 -52 -57z"/>
<path d="M3230 2718 c0 -65 1 -67 48 -120 96 -108 94 -87 18 -171 l-66 -74 0
-67 0 -67 115 128 c81 91 115 135 115 153 0 17 -22 49 -67 100 -38 42 -89 100
-115 130 l-48 55 0 -67z"/>
</g>
</svg>
